<svg enable-background="new 0 0 353 413" height="70" viewBox="0 0 353 413" width="60" xmlns="http://www.w3.org/2000/svg"><path clip-rule="evenodd" d="m253.084 7.255c14.601 14.299 22.646 33.409 41.014 44.169 14.282 8.366 35.335 8.5 44.169 22.084 5.939 9.133 7.419 27.392 0 35.756-5.068-35.817-35.035-32.236-57.841-49.428-5.958-6.66-11.919-13.321-17.878-19.981 4.557 41.711 9.115 83.435 13.671 125.146 2.243 12.553 8.561 32.938 4.207 46.273-4.949 15.16-21.632 26.625-37.859 30.498-30.948 7.385-66.418-20.607-55.737-51.531 11.528-33.374 57.613-34.349 83.08-14.723-5.607-56.081-11.217-112.181-16.826-168.263zm-161.953 9.465c18.335.109 23.3 7.739 29.446 19.981 24.146 48.092-3.925 92.918-25.239 125.146 3.855 16.124 7.712 32.252 11.568 48.376 83.31-2.216 86.255 108.859 28.394 127.249 20.391 66.648-69.765 92.072-88.338 46.272.701-3.504 1.402-7.011 2.104-10.516 6.455-4.587 11.014-5.638 19.981-3.155 3.118 4.554 4.93 6.783 5.258 14.724-3.031 5.075-6.147 5.788-2.103 9.464 34.421 22.119 59.37-18.465 51.531-51.53-70.72 11.654-131.033-38.124-107.269-113.579 12.56-39.879 41.575-60.509 63.099-90.441-10.157-38.02-26.105-101.084 11.568-121.991zm3.155 10.516c-27.187 17.962-17.569 72.817-9.465 105.165.351-.701.702-1.402 1.052-2.104 15.737-12.747 50.499-82.22 15.774-100.958-2.453-.7-4.908-1.401-7.361-2.103zm-7.361 144.076c-17.209 23.01-38.111 44.916-47.324 75.719-12.567 42.011 11.587 79.395 41.014 87.287 14.073 3.774 29.021-1.189 41.014-3.155 0-1.402 0-2.804 0-4.207-7.36-35.051-14.724-70.113-22.084-105.165-24.299 5.054-45.932 43.274-32.601 74.667 5.608 7.711 11.218 15.425 16.826 23.136-1.402 0-2.805 0-4.206 0-31.384-15.551-30.442-66.646-9.465-92.544 6.799-8.395 18.998-9.923 27.343-16.826-2.807-10.12-3.468-32.257-10.517-38.912zm22.084 48.376c8.412 34.701 16.827 69.412 25.239 104.113 37.981-26.4 30.426-102.394-25.239-104.113zm222.949 56.789c-.188 25.195-21.731 102.605-35.756 112.526-8.288 5.863-32.662 13.989-43.118 4.206-3.886-2.521-4.219-3.958-4.207-10.516 6.199-14.664 30.017-25.876 49.428-16.827 3.337-18.992 16.644-43.981 12.62-62.047-.351 0-.702 0-1.052 0-7.049.944-63.298 9.471-64.15 10.517-13.705 27.973-22.646 121.783-77.821 84.132 0-3.505 0-7.011 0-10.517 8.457-12.669 24.219-19.98 45.22-16.826 1.588-11.785 18.99-73.682 25.24-77.822 11.615-5.578 29.193.255 43.118-2.103 19.564-3.314 30.584-13.97 50.478-14.723zm-15.775 10.516c-15.666 10.852-43.111 10.694-66.253 13.671-.351 1.402-.701 2.805-1.052 4.207h2.104c17.538 7.495 54.068-5.281 65.202-11.568-.001-2.103-.001-4.207-.001-6.31z" fill-rule="evenodd"/></svg>